<svg width="500" height="500" viewBox="0 0 500 500" fill="none" xmlns="http://www.w3.org/2000/svg">
<rect width="500" height="500" rx="100" fill="#F9F7F7"/>
<path d="M148.84 171.04C142.493 171.04 137.173 169.547 132.88 166.56C128.587 163.387 125.32 159.093 123.08 153.68C120.84 148.267 119.813 142.107 120 135.2C120.187 126.613 122.52 118.213 127 110C131.48 101.6 138.387 94.6933 147.72 89.28C157.053 83.8667 168.907 81.16 183.28 81.16C193.36 81.16 203.067 81.9067 212.4 83.4C221.733 84.8933 230.787 86.48 239.56 88.16C248.333 89.6533 256.827 90.4 265.04 90.4C271.947 90.4 278.293 89.7467 284.08 88.44C289.867 87.1333 295.28 84.0533 300.32 79.2C302.187 81.0667 303.68 83.4 304.8 86.2C305.92 89 306.48 91.8933 306.48 94.88C306.48 98.9867 305.453 102.907 303.4 106.64C301.347 110.373 298.173 113.547 293.88 116.16C289.773 118.587 284.267 119.8 277.36 119.8C271.573 119.8 265.6 119.147 259.44 117.84C253.467 116.533 246.933 114.573 239.84 111.96C232.747 109.347 224.813 106.173 216.04 102.44L215.48 100.76C211 98.8933 206.987 97.7733 203.44 97.4C199.893 96.84 195.973 96.56 191.68 96.56C181.04 96.56 172.64 100.013 166.48 106.92C160.507 113.64 157.427 123.16 157.24 135.48C157.053 140.893 157.52 146.12 158.64 151.16C159.76 156.013 161.627 161.053 164.24 166.28C162 167.96 159.387 169.173 156.4 169.92C153.6 170.667 151.08 171.04 148.84 171.04ZM172.92 291.72C168.44 291.72 164.333 290.88 160.6 289.2C156.867 287.707 154.533 285.56 153.6 282.76C156.4 281.267 158.64 279.4 160.32 277.16C162 274.92 163.4 272.027 164.52 268.48C165.827 264.933 167.04 260.453 168.16 255.04L191.68 140.8C193.36 132.213 196.253 124.653 200.36 118.12C204.467 111.4 209.787 106.08 216.32 102.16C223.04 98.0533 230.88 95.6267 239.84 94.88L205.68 259.24C204.187 266.707 202.133 272.867 199.52 277.72C196.907 282.573 193.453 286.12 189.16 288.36C184.867 290.6 179.453 291.72 172.92 291.72ZM250.48 198.2C247.307 198.2 243.573 198.013 239.28 197.64C235.173 197.08 230.88 196.427 226.4 195.68C222.107 194.933 217.907 194 213.8 192.88L218.56 171.6C221.733 171.787 225.093 171.973 228.64 172.16C232.373 172.347 236.107 172.533 239.84 172.72C243.573 172.72 246.933 172.72 249.92 172.72C254.213 172.72 258.413 172.72 262.52 172.72C266.813 172.533 271.013 172.253 275.12 171.88C275.493 173.187 275.68 174.307 275.68 175.24C275.867 176.173 275.96 177.2 275.96 178.32C275.96 184.48 273.627 189.333 268.96 192.88C264.293 196.427 258.133 198.2 250.48 198.2Z" fill="#3F72AF"/>
<path d="M288.68 432.764C284.013 432.764 279.907 431.924 276.36 430.244C272.813 428.75 270.573 426.51 269.64 423.524C272.067 422.217 274.12 420.444 275.8 418.204C277.48 415.777 278.88 412.79 280 409.244C281.12 405.697 282.147 401.217 283.08 395.804L303.8 286.604C305.667 277.084 308.653 269.15 312.76 262.804C316.867 256.457 322.187 251.604 328.72 248.244C335.253 244.884 343.093 242.737 352.24 241.804L321.16 400.284C319.667 407.75 317.613 413.91 315 418.764C312.573 423.43 309.213 426.884 304.92 429.124C300.627 431.55 295.213 432.764 288.68 432.764ZM262.08 319.644C255.92 319.644 250.6 318.15 246.12 315.164C241.64 312.177 238.187 308.07 235.76 302.844C233.52 297.617 232.4 291.737 232.4 285.204C232.4 276.244 234.547 267.564 238.84 259.164C243.32 250.577 250.04 243.577 259 238.164C267.96 232.564 279.253 229.764 292.88 229.764C298.853 229.764 304.36 230.324 309.4 231.444C314.627 232.564 319.48 233.87 323.96 235.364C328.627 236.857 333.2 238.257 337.68 239.564C342.347 240.684 347.107 241.43 351.96 241.804L322.56 252.164L322.28 250.764C320.6 249.83 318.267 248.804 315.28 247.683C312.48 246.564 308.28 246.004 302.68 246.004C292.04 246.004 283.733 249.364 277.76 256.084C271.973 262.804 269.08 272.137 269.08 284.084C269.08 289.31 269.64 294.444 270.76 299.484C272.067 304.524 274.12 309.657 276.92 314.884C274.68 316.564 272.253 317.777 269.64 318.524C267.027 319.27 264.507 319.644 262.08 319.644Z" fill="#3F72AF"/>
</svg>
