<svg width="500" height="500" viewBox="0 0 500 500" fill="none" xmlns="http://www.w3.org/2000/svg">
<rect width="500" height="500" rx="100" fill="#F9F7F7"/>
<path d="M108.84 166.04C102.493 166.04 97.1733 164.547 92.88 161.56C88.5867 158.387 85.32 154.093 83.08 148.68C80.84 143.267 79.8133 137.107 80 130.2C80.1867 121.613 82.52 113.213 87 105C91.48 96.6 98.3867 89.6933 107.72 84.28C117.053 78.8667 128.907 76.16 143.28 76.16C153.36 76.16 163.067 76.9067 172.4 78.4C181.733 79.8933 190.787 81.48 199.56 83.16C208.333 84.6533 216.827 85.4 225.04 85.4C231.947 85.4 238.293 84.7467 244.08 83.44C249.867 82.1333 255.28 79.0533 260.32 74.2C262.187 76.0667 263.68 78.4 264.8 81.2C265.92 84 266.48 86.8933 266.48 89.88C266.48 93.9867 265.453 97.9067 263.4 101.64C261.347 105.373 258.173 108.547 253.88 111.16C249.773 113.587 244.267 114.8 237.36 114.8C231.573 114.8 225.6 114.147 219.44 112.84C213.467 111.533 206.933 109.573 199.84 106.96C192.747 104.347 184.813 101.173 176.04 97.44L175.48 95.76C171 93.8933 166.987 92.7733 163.44 92.4C159.893 91.84 155.973 91.56 151.68 91.56C141.04 91.56 132.64 95.0133 126.48 101.92C120.507 108.64 117.427 118.16 117.24 130.48C117.053 135.893 117.52 141.12 118.64 146.16C119.76 151.013 121.627 156.053 124.24 161.28C122 162.96 119.387 164.173 116.4 164.92C113.6 165.667 111.08 166.04 108.84 166.04ZM132.92 286.72C128.44 286.72 124.333 285.88 120.6 284.2C116.867 282.707 114.533 280.56 113.6 277.76C116.4 276.267 118.64 274.4 120.32 272.16C122 269.92 123.4 267.027 124.52 263.48C125.827 259.933 127.04 255.453 128.16 250.04L151.68 135.8C153.36 127.213 156.253 119.653 160.36 113.12C164.467 106.4 169.787 101.08 176.32 97.16C183.04 93.0533 190.88 90.6267 199.84 89.88L165.68 254.24C164.187 261.707 162.133 267.867 159.52 272.72C156.907 277.573 153.453 281.12 149.16 283.36C144.867 285.6 139.453 286.72 132.92 286.72ZM210.48 193.2C207.307 193.2 203.573 193.013 199.28 192.64C195.173 192.08 190.88 191.427 186.4 190.68C182.107 189.933 177.907 189 173.8 187.88L178.56 166.6C181.733 166.787 185.093 166.973 188.64 167.16C192.373 167.347 196.107 167.533 199.84 167.72C203.573 167.72 206.933 167.72 209.92 167.72C214.213 167.72 218.413 167.72 222.52 167.72C226.813 167.533 231.013 167.253 235.12 166.88C235.493 168.187 235.68 169.307 235.68 170.24C235.867 171.173 235.96 172.2 235.96 173.32C235.96 179.48 233.627 184.333 228.96 187.88C224.293 191.427 218.133 193.2 210.48 193.2Z" fill="#3F72AF"/>
<path d="M209.48 416.08C207.427 416.08 205.467 415.893 203.6 415.52C201.733 415.333 200.053 414.96 198.56 414.4C199.493 404.32 200.333 393.96 201.08 383.32C201.827 372.493 202.387 361.947 202.76 351.68C203.32 341.413 203.6 332.173 203.6 323.96C203.6 308.467 202.947 295.587 201.64 285.32C200.52 274.867 198.933 266.467 196.88 260.12C194.827 253.587 192.493 248.453 189.88 244.72C187.267 240.987 184.467 237.907 181.48 235.48C184.28 232.12 188.2 229.133 193.24 226.52C198.28 223.907 203.413 222.6 208.64 222.6C215.36 222.6 221.053 225.307 225.72 230.72C230.573 235.947 234.213 244.067 236.64 255.08C239.253 265.907 240.56 279.813 240.56 296.8C240.56 305.013 240.28 314.16 239.72 324.24C239.16 334.32 238.32 344.773 237.2 355.6C236.267 366.427 235.147 377.067 233.84 387.52H234.68C243.827 382.48 252.133 376.04 259.6 368.2C267.253 360.36 273.88 351.587 279.48 341.88C285.08 332.173 289.467 322 292.64 311.36C295.813 300.533 297.4 289.893 297.4 279.44C297.4 270.853 296.373 263.013 294.32 255.92C292.267 248.64 289.187 242.013 285.08 236.04C286.76 232.493 289.467 229.32 293.2 226.52C297.12 223.72 301.32 222.32 305.8 222.32C312.52 222.32 317.933 224.747 322.04 229.6C326.333 234.267 329.507 241.64 331.56 251.72C333.613 261.8 334.64 274.867 334.64 290.92C334.64 299.507 334.173 309.587 333.24 321.16C332.307 332.547 331.187 344.12 329.88 355.88C328.573 367.453 327.173 378.093 325.68 387.8H326.52C333.427 384.813 340.147 380.053 346.68 373.52C353.213 366.987 359.187 359.24 364.6 350.28C370.2 341.32 374.96 331.8 378.88 321.72C382.987 311.453 386.16 301.187 388.4 290.92C390.827 280.467 392.04 270.48 392.04 260.96C392.04 252.933 391.107 245.653 389.24 239.12C387.373 232.4 384.573 226.707 380.84 222.04C382.52 217.187 385.693 213.36 390.36 210.56C395.027 207.76 399.88 206.36 404.92 206.36C409.027 206.36 412.667 207.573 415.84 210C419.2 212.24 421.813 215.787 423.68 220.64C425.547 225.307 426.48 231.28 426.48 238.56C426.48 249.013 424.987 260.68 422 273.56C419.2 286.253 415.093 299.32 409.68 312.76C404.267 326.013 397.827 338.8 390.36 351.12C382.893 363.253 374.587 374.267 365.44 384.16C356.293 393.867 346.4 401.613 335.76 407.4C325.307 413 314.387 415.8 303 415.8C301.133 415.8 299.36 415.613 297.68 415.24C296 415.053 294.32 414.773 292.64 414.4C293.573 408.427 294.413 401.893 295.16 394.8C295.907 387.707 296.56 380.613 297.12 373.52C297.867 366.24 298.52 359.52 299.08 353.36H297.96C290.68 365.493 282.187 376.32 272.48 385.84C262.773 395.36 252.507 402.827 241.68 408.24C230.853 413.467 220.12 416.08 209.48 416.08Z" fill="#3F72AF"/>
</svg>
